<svg aria-hidden="true" style="position: absolute; width: 0; height: 0; overflow: hidden;" version="1.1"
    xmlns="http://www.w3.org/2000/svg" xmlns:xlink="http://www.w3.org/1999/xlink">
    <defs>
        <symbol id="icon-burger-menu" viewBox="0 0 59 32">
            <path stroke-linejoin="miter" stroke-linecap="round" stroke-miterlimit="4" stroke-width="4.9231"
                d="M2.462 3.692h54.154"></path>
            <path stroke-linejoin="miter" stroke-linecap="round" stroke-miterlimit="4" stroke-width="4.9231"
                d="M2.462 16h54.154"></path>
            <path stroke-linejoin="miter" stroke-linecap="round" stroke-miterlimit="4" stroke-width="4.9231"
                d="M2.462 28.308h54.154"></path>
        </symbol>
        <symbol id="icon-ellipse-blue" viewBox="0 0 32 32">
            <path fill="#5d78ff" style="fill: var(--color1, #5d78ff)"
                d="M32 15.998c0 8.837-7.163 16-16 16s-16-7.163-16-16c0-8.837 7.163-16 16-16s16 7.163 16 16z"></path>
        </symbol>
        <symbol id="icon-ellipse-white" viewBox="0 0 32 32">
            <path fill="#f3f4f6" style="fill: var(--color2, #f3f4f6)"
                d="M32 15.998c0 8.837-7.163 16-16 16s-16-7.163-16-16c0-8.837 7.163-16 16-16s16 7.163 16 16z"></path>
        </symbol>
        <symbol id="icon-close" viewBox="0 0 32 32">
            <path
                d="M5.25 28.85l-2.1-2.1 11.55-11.55-11.55-11.55 2.1-2.1 11.55 11.55 11.55-11.55 2.1 2.1-11.55 11.55 11.55 11.55-2.1 2.1-11.55-11.55-11.55 11.55z">
            </path>
        </symbol>
        <symbol id="icon-logo-sign" viewBox="0 0 49 32">
            <path d="M0.533 18.509v9.291c0 1.683 1.406 3.049 3.142 3.049h8.478v-16.472l-11.62 4.132z"></path>
            <path d="M12.637 14.378l4.15 6.047v10.425l-4.15-5.531v-10.94z"></path>
            <path d="M17.273 11.701v19.148h11.626l-0.006-23.279-11.62 4.132z"></path>
            <path d="M29.377 7.569l4.725 7.962v15.318l-4.723-8.19-0.003-15.090z"></path>
            <path d="M34.587 4.681v26.169h10.013c1.735 0 3.141-1.365 3.141-3.049v-27.801l-13.154 4.681z"></path>
        </symbol>
        <symbol id="icon-down" viewBox="0 0 30 32">
            <path d="M15.429 13.429l-4.286-4.264h8.571l-4.286 4.264z"></path>
        </symbol>
        <symbol id="icon-right" viewBox="0 0 32 32">
            <path fill="#fff" style="fill: var(--color4, #fff)"
                d="M16 31.238l-2-2.048 11.762-11.762h-25v-2.857h25l-11.762-11.762 2-2.048 15.238 15.238-15.238 15.238z">
            </path>
        </symbol>
        <symbol id="icon-left" viewBox="0 0 32 32">
            <path fill="#fff" style="fill: var(--color4, #fff)"
                d="M16 0.762l2 2.048-11.762 11.762h25v2.857h-25l11.762 11.762-2 2.048-15.238-15.238 15.238-15.238z">
            </path>
        </symbol>
    </defs>
</svg>