<svg aria-hidden="true" style="position: absolute; width: 0; height: 0; overflow: hidden;" version="1.1"
    xmlns="http://www.w3.org/2000/svg" xmlns:xlink="http://www.w3.org/1999/xlink">
    <defs>
        <symbol id="icon-burger-menu" viewBox="0 0 59 32">
            <path stroke-linejoin="miter" stroke-linecap="round" stroke-miterlimit="4" stroke-width="4.9231"
                d="M2.462 3.692h54.154"></path>
            <path stroke-linejoin="miter" stroke-linecap="round" stroke-miterlimit="4" stroke-width="4.9231"
                d="M2.462 16h54.154"></path>
            <path stroke-linejoin="miter" stroke-linecap="round" stroke-miterlimit="4" stroke-width="4.9231"
                d="M2.462 28.308h54.154"></path>
        </symbol>
        <symbol id="icon-ellipse-blue" viewBox="0 0 32 32">
            <path fill="#5d78ff" style="fill: var(--color1, #5d78ff)"
                d="M32 15.998c0 8.837-7.163 16-16 16s-16-7.163-16-16c0-8.837 7.163-16 16-16s16 7.163 16 16z"></path>
        </symbol>
        <symbol id="icon-ellipse-white" viewBox="0 0 32 32">
            <path fill="#f3f4f6" style="fill: var(--color2, #f3f4f6)"
                d="M32 15.998c0 8.837-7.163 16-16 16s-16-7.163-16-16c0-8.837 7.163-16 16-16s16 7.163 16 16z"></path>
        </symbol>
        <symbol id="icon-close" viewBox="0 0 32 32">
            <path
                d="M5.25 28.85l-2.1-2.1 11.55-11.55-11.55-11.55 2.1-2.1 11.55 11.55 11.55-11.55 2.1 2.1-11.55 11.55 11.55 11.55-2.1 2.1-11.55-11.55-11.55 11.55z">
            </path>
        </symbol>
        <symbol id="icon-logo-sign" viewBox="0 0 49 32">
            <path d="M0.533 18.509v9.291c0 1.683 1.406 3.049 3.142 3.049h8.478v-16.472l-11.62 4.132z"></path>
            <path d="M12.637 14.378l4.15 6.047v10.425l-4.15-5.531v-10.94z"></path>
            <path d="M17.273 11.701v19.148h11.626l-0.006-23.279-11.62 4.132z"></path>
            <path d="M29.377 7.569l4.725 7.962v15.318l-4.723-8.19-0.003-15.090z"></path>
            <path d="M34.587 4.681v26.169h10.013c1.735 0 3.141-1.365 3.141-3.049v-27.801l-13.154 4.681z"></path>
        </symbol>
        <!-- <symbol id="icon-flag" viewBox="0 0 50 32">
            <path fill="#ffd500" style="fill: var(--color1, #ffd500)" d="M1.778 2.222h45.333v29.333h-45.333v-29.333z">
            </path>
            <path fill="#005bbb" style="fill: var(--color2, #005bbb)" d="M1.778 0.889h45.333v16h-45.333v-16z"></path>
        </symbol>
        <symbol id="icon-380" viewBox="0 0 92 32">
            <path
                d="M21.066 14.983v3.568h-20.467v-3.568h20.467zM12.74 6.268v21.738h-3.794v-21.738h3.794zM30.954 14.204h2.707c1.326 0 2.42-0.219 3.281-0.656 0.875-0.451 1.524-1.060 1.948-1.825 0.437-0.779 0.656-1.654 0.656-2.625 0-1.148-0.191-2.112-0.574-2.892s-0.957-1.367-1.723-1.764c-0.766-0.397-1.736-0.595-2.912-0.595-1.066 0-2.010 0.212-2.83 0.636-0.807 0.41-1.442 0.998-1.907 1.764-0.451 0.766-0.677 1.668-0.677 2.707h-3.794c0-1.518 0.383-2.898 1.148-4.143s1.839-2.235 3.22-2.974c1.395-0.738 3.008-1.107 4.84-1.107 1.805 0 3.384 0.321 4.737 0.964 1.354 0.629 2.406 1.572 3.158 2.83 0.752 1.244 1.128 2.796 1.128 4.655 0 0.752-0.178 1.559-0.533 2.42-0.342 0.848-0.882 1.641-1.62 2.379-0.725 0.738-1.668 1.347-2.83 1.825-1.162 0.465-2.557 0.697-4.184 0.697h-3.24v-2.297zM30.954 17.321v-2.276h3.24c1.9 0 3.473 0.226 4.717 0.677s2.222 1.053 2.933 1.805c0.725 0.752 1.23 1.579 1.518 2.481 0.301 0.889 0.451 1.777 0.451 2.666 0 1.395-0.239 2.632-0.718 3.712-0.465 1.080-1.128 1.996-1.99 2.748-0.848 0.752-1.846 1.319-2.994 1.702s-2.399 0.574-3.753 0.574c-1.299 0-2.522-0.185-3.671-0.554-1.135-0.369-2.14-0.902-3.015-1.6-0.875-0.711-1.559-1.579-2.051-2.604-0.492-1.039-0.738-2.222-0.738-3.548h3.794c0 1.039 0.226 1.948 0.677 2.728 0.465 0.779 1.121 1.388 1.969 1.825 0.861 0.424 1.873 0.636 3.035 0.636s2.16-0.198 2.994-0.595c0.848-0.41 1.497-1.025 1.948-1.846 0.465-0.82 0.697-1.853 0.697-3.097s-0.26-2.263-0.779-3.056c-0.52-0.807-1.258-1.401-2.215-1.784-0.943-0.396-2.058-0.595-3.343-0.595h-2.707zM67.973 22.92c0 1.818-0.424 3.363-1.272 4.635-0.834 1.258-1.969 2.215-3.404 2.871-1.422 0.656-3.028 0.984-4.819 0.984s-3.404-0.328-4.84-0.984c-1.436-0.656-2.57-1.613-3.404-2.871-0.834-1.271-1.251-2.816-1.251-4.635 0-1.189 0.226-2.276 0.677-3.261 0.465-0.998 1.114-1.866 1.948-2.604 0.848-0.738 1.846-1.306 2.994-1.702 1.162-0.41 2.44-0.615 3.835-0.615 1.832 0 3.466 0.355 4.902 1.066 1.436 0.697 2.564 1.661 3.384 2.892 0.834 1.23 1.251 2.639 1.251 4.225zM64.158 22.838c0-1.107-0.24-2.085-0.718-2.933-0.478-0.861-1.148-1.531-2.010-2.010s-1.86-0.718-2.994-0.718c-1.162 0-2.167 0.239-3.014 0.718-0.834 0.479-1.484 1.148-1.948 2.010-0.465 0.848-0.697 1.825-0.697 2.933 0 1.148 0.226 2.133 0.677 2.953 0.465 0.807 1.121 1.429 1.969 1.866 0.861 0.424 1.88 0.636 3.056 0.636s2.188-0.212 3.035-0.636c0.848-0.438 1.497-1.060 1.948-1.866 0.465-0.82 0.698-1.805 0.698-2.953zM67.276 8.913c0 1.449-0.383 2.755-1.149 3.917s-1.811 2.078-3.138 2.748c-1.326 0.67-2.83 1.005-4.512 1.005-1.709 0-3.234-0.335-4.573-1.005-1.326-0.67-2.365-1.586-3.117-2.748s-1.128-2.468-1.128-3.917c0-1.736 0.376-3.213 1.128-4.43 0.766-1.217 1.812-2.146 3.138-2.789s2.837-0.964 4.532-0.964c1.709 0 3.226 0.321 4.553 0.964s2.365 1.572 3.117 2.789c0.766 1.217 1.149 2.693 1.149 4.43zM63.482 8.975c0-0.998-0.212-1.88-0.636-2.645s-1.012-1.367-1.764-1.805c-0.752-0.451-1.627-0.677-2.625-0.677s-1.873 0.212-2.625 0.636c-0.738 0.41-1.319 0.998-1.743 1.764-0.41 0.766-0.615 1.675-0.615 2.728 0 1.025 0.205 1.921 0.615 2.687 0.424 0.766 1.012 1.36 1.764 1.784s1.627 0.636 2.625 0.636 1.866-0.212 2.604-0.636c0.752-0.424 1.34-1.019 1.764-1.784s0.636-1.661 0.636-2.687zM91.621 13.691v4.553c0 2.447-0.219 4.512-0.656 6.193s-1.066 3.035-1.887 4.061-1.812 1.771-2.974 2.235c-1.148 0.451-2.447 0.677-3.896 0.677-1.148 0-2.208-0.144-3.179-0.431s-1.846-0.745-2.625-1.374c-0.766-0.643-1.422-1.477-1.969-2.502s-0.964-2.27-1.251-3.732c-0.287-1.463-0.43-3.172-0.43-5.127v-4.553c0-2.447 0.219-4.498 0.656-6.152 0.451-1.654 1.087-2.98 1.907-3.979 0.82-1.012 1.805-1.736 2.953-2.174 1.162-0.438 2.461-0.656 3.896-0.656 1.162 0 2.229 0.144 3.199 0.431 0.984 0.273 1.86 0.718 2.625 1.333 0.766 0.602 1.415 1.408 1.948 2.42 0.547 0.998 0.964 2.222 1.251 3.671s0.431 3.151 0.431 5.106zM87.806 18.859v-5.804c0-1.34-0.082-2.516-0.246-3.527-0.15-1.025-0.376-1.9-0.677-2.625s-0.684-1.312-1.148-1.764c-0.451-0.451-0.978-0.779-1.579-0.984-0.588-0.219-1.251-0.328-1.99-0.328-0.902 0-1.702 0.171-2.399 0.513-0.697 0.328-1.285 0.854-1.764 1.579-0.465 0.725-0.82 1.675-1.066 2.851s-0.369 2.605-0.369 4.286v5.804c0 1.34 0.075 2.522 0.226 3.548 0.164 1.025 0.403 1.914 0.718 2.666 0.314 0.738 0.697 1.347 1.148 1.825s0.971 0.834 1.559 1.066c0.602 0.219 1.264 0.328 1.989 0.328 0.93 0 1.743-0.178 2.44-0.533s1.278-0.909 1.743-1.661c0.478-0.766 0.834-1.743 1.066-2.933 0.232-1.203 0.349-2.639 0.349-4.307z">
            </path>
        </symbol> -->
        <symbol id="icon-down" viewBox="0 0 30 32">
            <path d="M15.429 13.429l-4.286-4.264h8.571l-4.286 4.264z"></path>
        </symbol>
        <symbol id="icon-icon-right" viewBox="0 0 32 32">
            <path fill="#fff" style="fill: var(--color1, #fff)"
                d="M16 31.238l-2-2.048 11.762-11.762h-25v-2.857h25l-11.762-11.762 2-2.048 15.238 15.238-15.238 15.238z">
            </path>
        </symbol>
        <symbol id="icon-icon-left" viewBox="0 0 32 32">
            <path fill="#fff" style="fill: var(--color1, #fff)"
                d="M16 0.762l2 2.048-11.762 11.762h25v2.857h-25l11.762 11.762-2 2.048-15.238-15.238 15.238-15.238z">
            </path>
        </symbol>

    </defs>
</svg>